<?xml version="1.0" encoding="utf-8"?>
<!-- Generator: Adobe Illustrator 22.1.0, SVG Export Plug-In . SVG Version: 6.00 Build 0)  -->
<svg version="1.1" id="Layer_1" xmlns="http://www.w3.org/2000/svg" xmlns:xlink="http://www.w3.org/1999/xlink" x="0px" y="0px"
	 viewBox="0 0 56.7 56.7" style="enable-background:new 0 0 56.7 56.7;" xml:space="preserve">
<g>
	<path d="M39.5,25.6c-3.7,0-4.2,3.7-4.2,3.7h7.7C43.2,29.2,43.2,25.6,39.5,25.6z"/>
	<path d="M21.9,29.2H15v6.3h6.1c0.1,0,0.2,0,0.5,0c1,0,2.9-0.3,2.9-3.1C24.4,29.2,21.9,29.2,21.9,29.2z"/>
	<path d="M28.3,0C12.6,0,0,12.7,0,28.4s12.7,28.4,28.4,28.4s28.4-12.7,28.4-28.4C56.9,12.7,44.1,0,28.3,0z M34.4,17.5h9.8v2.9h-9.8
		V17.5z M29.4,32.8c0,7.3-7.5,7-7.5,7H15h-0.2H9.5V16.1h5.2H15h6.9c3.7,0,6.7,2.1,6.7,6.3S25,26.9,25,26.9
		C29.7,26.9,29.4,32.8,29.4,32.8z M47.7,32.5H35.5c0,4.4,4.2,4.2,4.2,4.2c3.9,0,3.8-2.5,3.8-2.5h4.2c0,6.8-8.1,6.3-8.1,6.3
		c-9.7,0-9.1-9.1-9.1-9.1s0-9.1,9.1-9.1C49.1,22.1,47.7,32.5,47.7,32.5z"/>
	<path d="M23.6,22.8c0-2.4-1.7-2.4-1.7-2.4h-0.8h-6v5.3h6.5C22.6,25.6,23.6,25.2,23.6,22.8z"/>
</g>
</svg>
