<?xml version="1.0" encoding="utf-8"?>
<!-- Generator: Adobe Illustrator 22.1.0, SVG Export Plug-In . SVG Version: 6.00 Build 0)  -->
<svg version="1.1" id="Layer_1" xmlns="http://www.w3.org/2000/svg" xmlns:xlink="http://www.w3.org/1999/xlink" x="0px" y="0px"
	 viewBox="0 0 1000 1000" style="enable-background:new 0 0 1000 1000;" xml:space="preserve">
<style type="text/css">
	.st0{fill:#FFFFFF;}
</style>
<circle cx="500" cy="499.9" r="500"/>
<g>
	<path class="st0" d="M345.5,709.9c-61.2,0-109.4-18.1-144.5-54.3c-35.1-36.2-52.6-88.1-52.6-155.7c0-66.4,17-118.1,51-154.8
		c34-36.8,81.4-55.2,142.2-55.2c29.1,0,54.5,2.1,76.2,6.2c9,1.5,16.2,6,21.8,13.4c5.6,7.5,8.4,15.9,8.4,25.2v17.9
		c0,7.8-3.2,14-9.5,18.5c-6.4,4.5-13.3,5.8-20.7,3.9c-21.3-5.6-42.9-8.4-65-8.4c-33.6,0-59.8,11.4-78.7,34.2
		c-18.9,22.8-28.3,55.8-28.3,99.1c0,42.6,10.1,75.6,30.2,99.1c20.2,23.5,47,35.3,80.6,35.3c22.4,0,44.2-2.8,65.5-8.4
		c7.5-1.9,14.5-0.6,21,3.9c6.5,4.5,9.8,10.6,9.8,18.5v16.8c0,9.3-2.9,17.7-8.7,25.2c-5.8,7.5-13.2,12-22.1,13.4
		C400.2,707.8,374.7,709.9,345.5,709.9z"/>
	<path class="st0" d="M617.1,674L504,325.7c-2.6-7.5-1.6-14.4,3.1-20.7c4.7-6.3,10.9-9.5,18.8-9.5h37.5c9.3,0,17.7,2.9,25.2,8.7
		c7.5,5.8,12.3,13.2,14.6,22.1l73.4,286.2c0,0.4,0.2,0.6,0.6,0.6c0.4,0,0.6-0.2,0.6-0.6l75.6-286.2c2.2-9,7.1-16.3,14.6-22.1
		c7.5-5.8,15.9-8.7,25.2-8.7h35.3c7.8,0,14.1,3.2,18.8,9.5c4.7,6.4,5.7,13.3,3.1,20.7L737,674c-2.6,9-7.8,16.2-15.4,21.8
		c-7.7,5.6-16.3,8.4-26,8.4h-37c-9.3,0-17.8-2.8-25.5-8.4C625.4,690.3,620.1,683,617.1,674z"/>
</g>
</svg>
