<?xml version="1.0" encoding="utf-8"?>
<!-- Generator: Adobe Illustrator 22.1.0, SVG Export Plug-In . SVG Version: 6.00 Build 0)  -->
<svg version="1.1" id="Layer_1" xmlns="http://www.w3.org/2000/svg" xmlns:xlink="http://www.w3.org/1999/xlink" x="0px" y="0px"
	 viewBox="0 0 1000 1000" style="enable-background:new 0 0 1000 1000;" xml:space="preserve">
<style type="text/css">
	.st0{fill:#FFFFFF;}
</style>
<g>
	<g>
		<circle cx="500" cy="500" r="500"/>
	</g>
	<g>
		<path class="st0" d="M612.7,786.7H387.3c-95.9,0-174-78.1-174-174V387.3c0-95.9,78.1-174,174-174h225.3c95.9,0,174,78.1,174,174
			v225.3C786.7,708.6,708.6,786.7,612.7,786.7z M387.3,271.1c-30.9,0-60,12.1-82.1,34.2s-34.2,51.2-34.2,82.1v225.3
			c0,30.9,12.1,60,34.2,82.1c22,22,51.2,34.2,82.1,34.2h225.3c30.9,0,60-12.1,82.1-34.2c22-22,34.2-51.2,34.2-82.1V387.3
			c0-30.9-12.1-60-34.2-82.1c-22-22-51.2-34.2-82.1-34.2H387.3z"/>
	</g>
	<g>
		<path class="st0" d="M500,649.8c-82.6,0-149.8-67.2-149.8-149.8S417.4,350.2,500,350.2S649.8,417.4,649.8,500
			S582.6,649.8,500,649.8z M500,408c-50.7,0-92,41.3-92,92s41.3,92,92,92s92-41.3,92-92S550.7,408,500,408z"/>
	</g>
	<g>
		<circle class="st0" cx="657.2" cy="348.9" r="32.2"/>
	</g>
</g>
</svg>
