<svg width="152" height="27" viewBox="0 0 152 27" fill="none" xmlns="http://www.w3.org/2000/svg">
<path d="M2.43 25.825C1.94 25.7083 1.53167 25.44 1.205 25.02C0.901665 24.5767 0.75 24.0867 0.75 23.55C0.75 23.13 0.91333 22.8033 1.24 22.57C1.59 22.3367 1.96333 22.29 2.36 22.43C3.9 22.9433 5.46333 23.2 7.05 23.2C8.68333 23.2 9.87334 22.6983 10.62 21.695C11.39 20.6917 11.775 18.9767 11.775 16.55V2.44501C11.775 1.90834 11.9733 1.44168 12.37 1.04501C12.7667 0.648346 13.2333 0.450012 13.77 0.450012H13.805C14.3417 0.450012 14.8083 0.648346 15.205 1.04501C15.6017 1.44168 15.8 1.90834 15.8 2.44501V17.6C15.8 20.6567 15.1 22.885 13.7 24.285C12.3 25.6617 10.0833 26.35 7.05 26.35C5.39333 26.35 3.85333 26.175 2.43 25.825Z" fill="black"/>
<path d="M39.0422 17.075C39.0422 23.2583 36.0089 26.35 29.9422 26.35C23.8755 26.35 20.8422 23.2583 20.8422 17.075V2.41002C20.8422 1.87335 21.0289 1.41835 21.4022 1.04501C21.7989 0.648346 22.2655 0.450012 22.8022 0.450012C23.3389 0.450012 23.7939 0.648346 24.1672 1.04501C24.5639 1.41835 24.7622 1.87335 24.7622 2.41002V17.25C24.7622 19.3033 25.1822 20.7967 26.0222 21.73C26.8855 22.6633 28.2155 23.13 30.0122 23.13C31.8089 23.13 33.1272 22.6633 33.9672 21.73C34.8305 20.7967 35.2622 19.3033 35.2622 17.25V2.34001C35.2622 1.82668 35.4489 1.38335 35.8222 1.01001C36.1955 0.636673 36.6389 0.450012 37.1522 0.450012C37.6655 0.450012 38.1089 0.636673 38.4822 1.01001C38.8555 1.38335 39.0422 1.82668 39.0422 2.34001V17.075Z" fill="black"/>
<path d="M46.4294 26C45.8927 26 45.426 25.8017 45.0294 25.405C44.6327 25.0083 44.4344 24.5417 44.4344 24.005V2.44501C44.4344 1.90834 44.6327 1.44168 45.0294 1.04501C45.426 0.648346 45.8927 0.450012 46.4294 0.450012H46.4644C47.001 0.450012 47.4677 0.648346 47.8644 1.04501C48.261 1.44168 48.4594 1.90834 48.4594 2.44501V22.465C48.4594 22.675 48.5527 22.78 48.7394 22.78H58.5744C59.0177 22.78 59.391 22.9433 59.6944 23.27C60.021 23.5733 60.1844 23.9467 60.1844 24.39C60.1844 24.8333 60.021 25.2184 59.6944 25.545C59.391 25.8483 59.0177 26 58.5744 26H46.4294Z" fill="black"/>
<path d="M67.9147 26C67.3781 26 66.9114 25.8017 66.5147 25.405C66.1181 25.0083 65.9197 24.5417 65.9197 24.005V2.44501C65.9197 1.90834 66.1181 1.44168 66.5147 1.04501C66.9114 0.648346 67.3781 0.450012 67.9147 0.450012H68.1247C68.6614 0.450012 69.1281 0.648346 69.5247 1.04501C69.9214 1.44168 70.1197 1.90834 70.1197 2.44501V24.005C70.1197 24.5417 69.9214 25.0083 69.5247 25.405C69.1281 25.8017 68.6614 26 68.1247 26H67.9147Z" fill="black"/>
<path d="M85.6001 19.21C85.2061 19.21 84.816 19.1612 84.452 19.0858C84.0881 19.0105 83.7574 18.9 83.4788 18.7607C83.2002 18.6214 82.9792 18.456 82.8285 18.274C82.6777 18.0921 82.6001 17.897 82.6001 17.7C82.6001 17.503 82.6777 17.308 82.8285 17.126C82.9792 16.944 83.2002 16.7786 83.4788 16.6394C83.7574 16.5001 84.0881 16.3896 84.452 16.3142C84.7957 16.243 85.1626 16.2045 85.5341 16.2004L85.6001 16.2H88.7742C88.8442 16.2 88.9025 16.1767 88.9492 16.13C88.9958 16.06 89.0075 15.99 88.9842 15.92L85.3092 3.98502C85.3092 3.96169 85.2975 3.95001 85.2742 3.95001C85.2623 3.95001 85.2535 3.95303 85.2477 3.95906C85.242 3.96489 85.2392 3.97354 85.2392 3.98502L82.0476 14.3501L82.0376 14.3479L80.513 19.397C80.5036 19.4157 80.4954 19.4358 80.4885 19.4573C80.4851 19.4678 80.482 19.4788 80.4792 19.49L79.0792 24.11C78.9158 24.67 78.5892 25.125 78.0992 25.475C77.6325 25.825 77.0959 26 76.4892 26C75.9992 26 75.6025 25.8017 75.2992 25.405C75.0192 25.0083 74.9608 24.5767 75.1242 24.11L82.6142 2.34001C82.8008 1.78001 83.1392 1.32501 83.6292 0.975006C84.1192 0.625015 84.6559 0.450012 85.2392 0.450012H85.4492C86.0558 0.450012 86.5925 0.625015 87.0592 0.975006C87.5492 1.32501 87.8875 1.78001 88.0742 2.34001L95.5642 24.11C95.7275 24.5767 95.6575 25.0083 95.3542 25.405C95.0742 25.8017 94.6892 26 94.1992 26H94.0592C93.4758 26 92.9392 25.825 92.4492 25.475C91.9825 25.125 91.6559 24.67 91.4692 24.11L90.0692 19.49C90.0459 19.3033 89.9175 19.21 89.6842 19.21H85.6001Z" fill="black"/>
<path d="M104.676 25.9C104.396 25.8333 104.163 25.68 103.976 25.44C103.803 25.1867 103.716 24.9067 103.716 24.6C103.716 24.36 103.81 24.1733 103.996 24.04C104.196 23.9067 104.41 23.88 104.636 23.96C105.516 24.2533 106.41 24.4 107.316 24.4C108.25 24.4 108.93 24.1133 109.356 23.54C109.796 22.9667 110.016 21.9867 110.016 20.6V18.84H102.976V17.86H110.016V12.54C110.016 12.2334 110.13 11.9667 110.356 11.74C110.583 11.5134 110.85 11.4 111.156 11.4H111.176C111.483 11.4 111.75 11.5134 111.976 11.74C112.203 11.9667 112.316 12.2334 112.316 12.54V17.86H115.398V12.54C115.398 12.2334 115.511 11.9667 115.738 11.74C115.964 11.5134 116.231 11.4 116.538 11.4H123.298C123.551 11.4 123.764 11.4867 123.938 11.66C124.111 11.8333 124.198 12.0467 124.198 12.3C124.198 12.5533 124.111 12.7667 123.938 12.94C123.764 13.1133 123.551 13.2 123.298 13.2H117.778C117.658 13.2 117.598 13.2533 117.598 13.36V17.18C117.598 17.3 117.658 17.36 117.778 17.36H122.938C123.178 17.36 123.378 17.4467 123.538 17.62C123.616 17.6919 123.676 17.7719 123.719 17.86H131.138L134.093 13.26V13.24C134.099 13.24 134.105 13.2383 134.108 13.2349C134.111 13.2316 134.113 13.2266 134.113 13.22C134.113 13.2067 134.106 13.2 134.093 13.2H127.973C127.719 13.2 127.506 13.1133 127.333 12.94C127.159 12.7667 127.073 12.5533 127.073 12.3C127.073 12.0467 127.159 11.8333 127.333 11.66C127.506 11.4867 127.719 11.4 127.973 11.4H135.773C136.026 11.4 136.239 11.4867 136.413 11.66C136.586 11.8333 136.673 12.0467 136.673 12.3C136.673 12.9 136.513 13.4533 136.193 13.96L133.687 17.86H139.753V12.5C139.753 12.1933 139.86 11.9333 140.073 11.72C140.287 11.5067 140.547 11.4 140.853 11.4C141.16 11.4 141.42 11.5067 141.633 11.72C141.847 11.9333 141.953 12.1933 141.953 12.5V17.18C141.953 17.3 142.013 17.36 142.133 17.36H147.973C148.093 17.36 148.153 17.3 148.153 17.18V12.5C148.153 12.1933 148.26 11.9333 148.473 11.72C148.687 11.5067 148.947 11.4 149.253 11.4C149.56 11.4 149.82 11.5067 150.033 11.72C150.247 11.9333 150.353 12.1933 150.353 12.5V17.86H151.993V18.84H150.353V24.9C150.353 25.2067 150.247 25.4667 150.033 25.68C149.82 25.8933 149.56 26 149.253 26C148.947 26 148.687 25.8933 148.473 25.68C148.26 25.4667 148.153 25.2067 148.153 24.9V19.26C148.153 19.14 148.093 19.08 147.973 19.08H142.133C142.013 19.08 141.953 19.14 141.953 19.26V24.9C141.953 25.2067 141.847 25.4667 141.633 25.68C141.42 25.8933 141.16 26 140.853 26C140.547 26 140.287 25.8933 140.073 25.68C139.86 25.4667 139.753 25.2067 139.753 24.9V18.84H133.058L129.653 24.14C129.653 24.1534 129.646 24.16 129.633 24.16V24.18C129.633 24.1933 129.639 24.2 129.653 24.2H135.773C136.026 24.2 136.239 24.2867 136.413 24.46C136.586 24.6333 136.673 24.8467 136.673 25.1C136.673 25.3533 136.586 25.5667 136.413 25.74C136.239 25.9133 136.026 26 135.773 26H127.973C127.719 26 127.506 25.9133 127.333 25.74C127.159 25.5667 127.073 25.3533 127.073 25.1C127.073 24.5 127.233 23.9467 127.553 23.44L130.508 18.84H123.538C123.378 19 123.178 19.08 122.938 19.08H117.778C117.658 19.08 117.598 19.14 117.598 19.26V24.02C117.598 24.14 117.658 24.2 117.778 24.2H123.298C123.551 24.2 123.764 24.2867 123.938 24.46C124.111 24.6333 124.198 24.8467 124.198 25.1C124.198 25.3533 124.111 25.5667 123.938 25.74C123.764 25.9133 123.551 26 123.298 26H116.538C116.231 26 115.964 25.8867 115.738 25.66C115.511 25.4333 115.398 25.1667 115.398 24.86V18.84H112.316V21.2C112.316 22.9467 111.916 24.22 111.116 25.02C110.316 25.8067 109.05 26.2 107.316 26.2C106.37 26.2 105.49 26.1 104.676 25.9Z" fill="black"/>
</svg>
