<?xml version="1.0" encoding="utf-8"?>
<!-- Generator: Adobe Illustrator 22.1.0, SVG Export Plug-In . SVG Version: 6.00 Build 0)  -->
<svg version="1.1" id="Medium_w_x2F__circle" xmlns="http://www.w3.org/2000/svg" xmlns:xlink="http://www.w3.org/1999/xlink"
	 x="0px" y="0px" viewBox="0 0 20 20" style="enable-background:new 0 0 20 20;" xml:space="preserve">
<path d="M10,0C4.5,0,0,4.5,0,10s4.5,10,10,10s10-4.5,10-10S15.5,0,10,0z M14.4,7.6h-0.1c0,0-0.4,0-0.4,0.4v4.1c0,0,0,0.4,0.4,0.4
	h0.1v1h-2.9v-1h0.5V7.9h0l-1.5,5.5H9.1L7.6,7.9h0v4.5h0.5v1H5.6v-1h0.1c0,0,0.4,0,0.4-0.4V7.9c0,0,0-0.4-0.4-0.4H5.6v-1h3.2l1.1,4.2
	h0l1.1-4.2h3.2V7.6z"/>
</svg>
