<?xml version="1.0" encoding="utf-8"?>
<!-- Generator: Adobe Illustrator 22.1.0, SVG Export Plug-In . SVG Version: 6.00 Build 0)  -->
<svg version="1.1" id="Capa_1" xmlns="http://www.w3.org/2000/svg" xmlns:xlink="http://www.w3.org/1999/xlink" x="0px" y="0px"
	 viewBox="0 0 60 60" style="enable-background:new 0 0 60 60;" xml:space="preserve">
<path d="M30.5,0C14.2,0,1,13.2,1,29.5c0,5.1,1.3,10.2,3.9,14.7L0.1,58.7c-0.1,0.3,0,0.7,0.2,1C0.5,59.9,0.7,60,1,60
	c0.1,0,0.2,0,0.3,0l15.9-4.2c4.1,2.1,8.7,3.2,13.4,3.2C46.8,59,60,45.8,60,29.5S46.8,0,30.5,0z M48.9,42.9l-1.8,1.8
	c-2.2,2.2-4.7,3.3-7.4,3.3l0,0c-3.6,0-7.5-2-11.5-6.1L18.1,31.7c-3.2-3.2-5.1-6.3-5.8-9.2c-0.8-3.5,0.2-6.8,3.1-9.7l1.8-1.8
	c1.1-1.1,3-1.4,4.4-0.7c2.7,1.4,5.4,6,5.7,6.5c0.6,1,0.7,2,0.5,2.8c-0.2,0.7-0.6,1.2-1.2,1.6c-0.8,0.7-1.8,1.5-1.9,1.7
	c-1,1.5-0.9,2.6,0.4,4l8,8c1.3,1.3,2.5,1.4,4,0.4c0.2-0.2,1-1.1,1.7-1.9c0.5-0.8,1.3-1.3,2.3-1.3c0.7,0,1.4,0.2,2,0.6
	c0.5,0.3,5.1,3.1,6.6,5.7C50.3,40,50.1,41.7,48.9,42.9z"/>
</svg>
